<?xml version="1.0" encoding="UTF-8"?>
<svg width="90px" height="128px" viewBox="0 0 90 128" version="1.1" xmlns="http://www.w3.org/2000/svg" xmlns:xlink="http://www.w3.org/1999/xlink">
    <title>Fill 3</title>
    <g id="页面-1" stroke="none" stroke-width="1" fill="none" fill-rule="evenodd">
        <g id="287_-_5_-_Marker_I" transform="translate(-6.000000, 0.000000)" fill="#FE0002">
            <path d="M68.894,65.647 C64.313,70.295 57.987,73.171 51,73.171 C44.013,73.171 37.687,70.295 33.107,65.647 C28.53,61.001 25.698,54.583 25.698,47.496 C25.698,40.408 28.53,33.99 33.107,29.344 C37.687,24.695 44.013,21.819 51,21.819 C57.987,21.819 64.313,24.695 68.894,29.344 C73.471,33.99 76.302,40.408 76.302,47.496 C76.302,54.583 73.471,61.001 68.894,65.647 Z M51,0.019 C38.717,0.019 27.597,5.072 19.549,13.241 C11.499,21.413 6.519,32.705 6.519,45.177 C6.519,62.831 23.159,86.604 37.394,106.941 C39.284,109.641 41.131,112.279 42.892,114.836 C42.896,114.842 42.9,114.848 42.902,114.851 C43.889,116.283 44.848,117.69 45.772,119.067 C46.355,119.935 46.921,120.786 47.468,121.62 C48.737,123.555 49.922,125.422 51,127.209 C52.081,125.417 53.266,123.551 54.531,121.62 C55.945,119.465 57.483,117.195 59.103,114.843 C59.104,114.841 59.106,114.839 59.107,114.838 C60.868,112.28 62.716,109.641 64.605,106.941 C78.841,86.604 95.481,62.831 95.481,45.177 C95.481,32.705 90.501,21.413 82.451,13.241 C74.403,5.072 63.283,0.019 51,0.019 L51,0.019 Z" id="Fill-3"></path>
        </g>
    </g>
</svg>