<?xml version="1.0" encoding="UTF-8" standalone="no"?>
<svg
   xmlns:dc="http://purl.org/dc/elements/1.1/"
   xmlns:cc="http://creativecommons.org/ns#"
   xmlns:rdf="http://www.w3.org/1999/02/22-rdf-syntax-ns#"
   xmlns:svg="http://www.w3.org/2000/svg"
   xmlns="http://www.w3.org/2000/svg"
   width="1024"
   height="1024"
   viewBox="0 0 270.93333 270.93334"
   version="1.1"
   id="svg1020">
  <defs
     id="defs1014" />
  <metadata
     id="metadata1017">
    <rdf:RDF>
      <cc:Work
         rdf:about="">
        <dc:format>image/svg+xml</dc:format>
        <dc:type
           rdf:resource="http://purl.org/dc/dcmitype/StillImage" />
        <dc:title></dc:title>
      </cc:Work>
    </rdf:RDF>
  </metadata>
  <g
     id="layer1">
    <path
       class="fil2 str1"
       d="m 103.56401,263.75643 c 2.77745,-0.75873 5.59556,-0.89421 8.4543,-1.16518 2.05938,-0.18968 3.68521,-0.0948 3.68521,-2.371 0.48774,0 0.58258,0.59614 1.07033,0.0136 l 1.05679,-1.26001 c 0.9213,-1.08389 2.41164,-1.86971 3.11617,-3.07553 3.02132,-3.49552 7.45172,-6.05619 11.44854,-8.73881 1.70711,-1.13808 4.02391,-1.55808 5.5549,-2.66906 1.4497,-1.01614 3.36004,-1.46325 4.74199,-2.52003 0.39291,-0.29808 0.12194,-2.39809 0.12194,-2.94004 h 0.0271 c 0.13548,0.55549 0.9484,1.3955 1.27357,1.88325 0.21677,0.31162 1.62582,-0.75872 1.97808,-0.97549 1.77486,-1.09743 3.73941,-1.69358 4.26779,-3.79359 0.65033,0 -0.10838,2.34389 1.59874,1.76131 l 6.00201,-2.03229 c 2.91293,-0.4742 5.28394,-0.86711 7.83107,-2.35745 2.37099,-1.3955 4.72844,-1.47679 7.38396,-2.01873 1.32776,-0.27098 2.46583,-0.0271 2.46583,-1.55809 l 1.35486,0.0136 c 0.84001,0 3.67166,-0.52839 4.28134,-0.27097 0,0.0271 0.0136,0.0271 0.0271,0.0541 l -0.0136,0.50131 c 0.58259,0.3929 3.88844,-0.21679 4.80974,-0.21679 2.04583,0 3.52263,0 5.582,-0.17613 l 4.17294,-0.37936 c 0.43356,-0.16258 4.01037,0.25743 4.28134,0.60969 0.69098,0.86711 3.27875,0.84001 4.41683,0.97549 1.17873,0.14904 1.53099,-0.25741 2.58777,-0.51484 1.40905,-0.33871 1.23292,-0.60969 1.23292,-2.04583 0.84002,0 3.61747,-1.63937 3.67166,-1.11098 0.13549,1.20582 0.9213,1.54453 0.9213,2.64196 0,0.33872 2.12712,0.48776 2.46584,0.43356 l 13.87371,-6.40846 1.58518,-1.20583 0.40646,-7.91235 -3.15682,-8.15622 c -0.25741,-1.00259 -2.791,-8.49494 -3.48197,-8.65752 -1.15163,-0.25743 -5.97491,-0.0271 -6.48975,-1.07034 1.46323,0 4.17295,0.37935 5.48716,-0.24387 0.52839,-0.24388 0.14903,-0.56905 0.13548,-1.04325 -1.13808,-1.55808 -2.20842,-3.36003 -2.96714,-5.13489 -0.70451,-1.63938 -1.57163,-3.95618 -2.6555,-5.35168 -0.46065,-0.59614 -1.35486,-1.91035 -1.47679,-2.64197 l -8.44076,-11.84143 c -0.85355,-1.20582 -1.93744,-2.24905 -2.68261,-3.45489 -2.05938,-3.19745 -5.13489,-5.9478 -6.99105,-9.213 -0.52839,-0.94841 -1.76131,-2.37101 -2.04583,-3.30585 -0.39291,-0.4471 -1.23291,-2.56069 -1.85614,-2.20841 -1.01614,0.56903 -1.31421,-0.5555 -0.14903,-0.5555 -0.14904,-0.46066 -0.77227,-1.20583 -1.05679,-1.70711 -0.52839,-0.9484 -0.48775,-1.8968 -0.90775,-2.84522 -0.81291,-1.82903 -2.49293,-4.52521 -3.91553,-5.9478 -1.62582,-2.791 -4.95878,-5.88008 -7.41106,-7.9801 -0.78582,-0.67743 -1.55808,-0.96195 -2.42519,-1.44969 -1.08388,-0.62324 -1.78841,-1.84261 -2.98068,-2.41164 -1.63937,-2.46584 -4.76909,-4.20006 -7.51944,-5.2162 -2.8452,-1.05678 -4.99942,-3.36004 -7.42463,-4.95876 -0.82646,-0.0813 -1.76131,-0.94841 -2.69616,-1.07034 -0.88065,-0.10839 -1.99163,-0.32516 -2.73681,-0.81292 -0.79935,-0.52838 -0.88065,-0.0813 -1.68001,-0.0813 -0.9484,0 -1.55809,-0.85356 -2.35745,-1.23292 -0.69098,-0.32516 -2.16777,-0.70452 -2.92649,-0.47419 -1.51743,0.4471 -1.19227,1.46324 -2.05937,2.04583 -0.50131,0.33871 -0.5826,0.93484 -0.60969,1.51743 -0.13548,2.73681 2.07293,2.73681 3.42778,4.32199 1.61228,1.49034 4.26779,1.09743 5.78523,2.87229 1.30066,1.53099 1.77486,4.03747 1.66648,6.04266 -0.0948,1.73421 0.40645,2.37099 0.84,3.90198 0.16259,2.04583 0.25743,3.45487 -1.04323,5.162 -1.07034,1.40904 -3.60391,3.22455 -5.27039,3.82068 -1.3955,0.50131 -2.46584,0.40647 -3.95617,0.40647 -1.73422,0 -3.48198,0 -2.91295,2.14066 0.5284,0.88065 1.49034,1.38197 1.9781,2.31681 0.40645,0.75872 0.3929,1.74777 0.23032,2.61486 -0.35227,1.96456 -1.61228,3.04845 -3.02132,4.30846 -0.82646,0.73162 -2.31681,0.84 -3.3465,1.17872 -0.62323,0.20323 -0.8671,0.71808 -1.36841,1.11097 -0.31161,0.69098 0.47421,2.54714 0.60969,3.3465 0.23033,1.38195 -0.17613,1.9781 -1.28711,2.76391 -2.41164,1.68001 1.81551,4.32199 1.24647,6.32717 -0.39291,1.16517 -0.85357,2.46583 -1.04324,3.68521 -0.23032,1.46324 0.69098,1.82905 1.35485,2.84519 0.37936,0.59614 0.43356,1.50389 0.54195,2.18132 0.16258,1.00259 0.51484,2.30325 0.51484,3.2923 l 1.16518,4.74199 c 0.32517,1.3142 0.74516,2.85874 0.74516,4.22715 0,0.17613 -0.0136,0.94839 -0.0813,0.9213 0,-0.0407 -0.0407,-0.17613 -0.0677,-0.17613 0,-0.37936 -0.5284,-1.66647 -0.74518,-2.03229 -0.58259,-1.00259 -0.51484,-1.82905 -0.77227,-2.87229 -0.18968,-0.74517 -0.50129,-1.62583 -0.4471,-2.39809 -0.12194,-1.96455 -0.50129,-4.89103 -1.3413,-6.66588 -0.56904,-1.20582 -2.15423,-2.80456 -1.68002,-4.30845 0,-1.66647 1.3413,-2.47938 1.3413,-3.90198 0,-1.55808 -1.85615,-1.73421 -2.12712,-3.07552 -0.12194,-0.60968 -0.0541,-2.12713 0.3929,-2.56067 0.35227,-0.93485 1.11098,-1.35486 1.46325,-2.41164 0.25742,-0.75873 -0.17613,-1.85616 -0.29807,-2.58778 -0.25742,-1.68002 1.28712,-2.92649 2.72326,-3.42779 1.62583,-0.56904 2.22196,-0.67742 3.49552,-1.8697 1.11098,-1.9239 1.80197,-3.76651 0.32517,-5.6091 -0.82646,-1.04323 -2.92649,-3.45488 -0.63678,-4.40328 1.24646,-0.5284 2.45228,-0.23033 3.7123,-0.47421 1.82906,0 3.96973,-0.56904 5.20264,-1.93744 0.94841,-1.04324 2.70972,-2.27615 3.19746,-3.54972 0.36581,-0.9755 -0.0407,-1.81551 0.17613,-2.66906 -0.55549,-1.11098 -1.07034,-2.3168 -1.05679,-3.57682 l 0.0541,-3.18391 c 0.0271,-1.97809 -1.21937,-2.56067 -2.43874,-3.78004 -0.54194,-0.54194 -1.96455,-0.39291 -2.75036,-0.98905 -0.8942,-0.59613 -1.63937,-1.26001 -2.61486,-1.70711 -0.67744,-0.29807 -1.55809,-0.88066 -2.07294,-1.40906 -1.17872,-1.17871 -0.94839,-2.76389 -0.52839,-4.21359 0.12194,-0.40646 1.07034,-2.14067 1.3684,-2.35745 0.18968,-0.31161 1.02969,-0.88065 0.9213,-1.15162 -0.18968,-0.4742 -0.52839,-1.07034 -0.85355,-1.49034 -0.51485,-0.65033 -2.3439,-3.3465 -3.11617,-3.3465 -0.48775,0 -2.94004,0.39291 -3.15681,-0.17612 -0.10839,-0.28452 0.54194,-0.70453 0.63678,-0.9755 0.0813,-0.23032 -0.71807,-0.66388 -0.89421,-0.79937 -0.88065,-0.62323 -2.61486,-2.3981 -3.53616,-2.57423 -0.55549,-0.10839 -1.77486,-1.23292 -1.84261,-1.78841 -0.62323,-0.71807 -0.54194,-1.15162 -1.47679,-1.68002 -0.73162,-0.42001 -1.40905,-1.12452 -2.20841,-1.38195 -0.74517,-0.24388 -0.54195,-0.528394 -0.97549,-1.029686 -0.44711,-0.528396 -1.28712,-0.853556 -1.82906,-1.436151 -0.4742,-0.501292 -1.4497,-1.409046 -2.05939,-1.707112 -0.3929,-0.189679 -0.50129,0.23032 -1.13808,-0.284518 -0.54195,-0.433557 -1.26002,-0.826463 -1.76131,-1.287113 -0.66388,-0.298066 -1.16518,-0.894208 -1.96454,-0.894208 -0.70453,0 -0.67743,0.867103 -1.21938,0.704529 -1.35485,-0.379359 -2.05937,-1.72067 -3.52262,-2.113575 -0.93485,-0.243878 -1.61227,-0.718076 -2.19487,-1.260019 v 0 l -0.94839,0.42001 c -0.29807,0.853556 -0.69097,1.327753 -0.69097,0.13548 0,-1.991631 -0.9213,0.460651 -1.53099,0.01359 -1.55809,-1.138075 -1.15162,0.230331 -2.20842,0.501302 0,3.441329 -2.87229,1.287113 -4.25424,2.858745 -0.50129,0.569037 -0.79937,0.663877 -1.27357,0.203226 -0.29806,-0.311613 -1.62582,0.989047 -1.62582,1.029688 -0.0677,0.392905 -0.55549,0.636783 -0.96195,0.541943 -0.3929,-0.09481 -0.16257,-1.002594 -0.48774,-1.002594 -0.13548,0.528397 -0.501295,1.571632 -1.273569,1.192273 -0.623236,-0.311612 0.406462,-0.636782 -0.352265,-0.826462 -1.138074,-0.284518 0.04066,-2.465839 -1.707112,-2.465839 -0.203226,0.826462 -1.246472,1.774869 -1.246472,2.438745 0.623236,0 0.311624,0.88065 -0.514838,0.88065 -0.487745,0 -1.138075,0.528397 -1.923896,0.528397 -0.108387,0 -0.216773,-0.02707 -0.311613,-0.02707 0,-0.121944 0.338707,-0.840009 0.02707,-0.840009 -0.01359,-0.02707 -1.544538,0.677413 -1.707112,1.151622 -0.596142,1.639377 -2.980689,1.409046 -3.509085,3.265196 -0.894197,3.15682 -4.498111,1.24647 -6.54394,2.89939 -0.921302,0.74517 -0.894208,1.59873 0.149027,2.28971 0.74517,0.5013 2.452292,0.24387 2.452292,1.15163 -0.528396,0.17613 -1.598736,0.4471 -2.059387,0.73162 -0.69097,0.42001 -1.01613,0.85355 -0.812904,1.53099 0.298066,0.58258 1.016141,0.75872 1.381952,1.27355 0.921291,1.27357 -0.46065,0.42001 -0.677434,1.46325 -0.08132,0.36581 -0.528386,0.58259 -0.528386,0.9755 0,0.12193 0.419999,0.31161 0.23032,0.40645 l -0.447104,0.23033 c 0,0.67743 -0.419999,0.58259 -0.541943,0.96195 -0.216773,0.65033 0.961953,1.26001 0.02707,1.51744 -0.447104,0.12193 -0.42001,0.35225 -0.961954,0.24387 -0.298065,-0.0677 -0.867103,0.33871 -0.298065,0.47419 0,0.50131 -2.235511,1.16518 -2.723259,1.0026 -0.609686,0 -3.007777,0.5013 -1.50389,1.30066 1.178724,0.62323 0.176131,0.23033 -0.406458,0.82646 -0.609682,0.60969 -0.772267,0.14904 -1.27356,0.14904 -0.135489,0 0.189678,0.59613 0.149034,0.85355 -0.121937,0.67743 -0.09484,1.35486 -0.149034,2.01874 -0.0542,0.59613 1.354854,0.36581 1.896796,0.36581 0.0542,0.17613 0.257423,0.60968 0.257423,0.75872 -0.853561,0 -0.203228,1.28711 0.677426,0.98904 0.189678,-0.0677 1.50389,-0.17613 1.354856,0.0136 -0.28452,0.35227 -0.257422,1.95099 0.203228,2.18132 0.677426,0.32516 -0.01355,2.12713 -0.311616,2.54713 -0.812914,0.69098 0.203229,2.52002 0.203229,3.54972 0,0.59613 1.381947,0.59613 1.652919,0.29807 0.203236,-0.23033 0.09481,-1.50389 0.826462,-1.50389 0,0.96194 1.246472,1.17872 1.192273,1.80195 -0.108387,1.12453 0.230331,1.47679 0.731622,2.50648 0.325171,0.69098 0.975501,0.13549 1.16518,0.85356 0.189679,0.73162 -0.09481,0.67743 -0.853567,0.88066 0,1.99164 -3.441329,1.12453 -3.563262,0.67742 -0.731623,0 -2.61487,-1.57163 -2.953587,-1.49034 0,0.31163 -0.609683,-0.13548 -0.907752,0.0136 -0.934848,0.46066 -2.262606,3.57682 -3.07552,1.42261 -0.311617,-0.84001 -1.056788,-2.52004 -1.883248,-2.81811 -0.514845,-0.18967 -0.9484,1.63938 -1.124531,2.05938 -0.474201,1.16518 0.975495,2.12713 -1.4226,2.61488 -1.761309,0.35226 -2.303251,0.3929 -2.303251,2.3168 -0.121937,0.4471 0.0542,1.31421 -0.121937,1.61227 -0.230326,0.39292 -0.582589,0.5826 -0.02709,0.81292 0.609687,0.24387 0.447101,1.4497 0.135486,1.8968 -0.352262,0.50129 0.325166,0.71806 0.66388,1.05679 0.270973,0.27096 -0.189678,0.59614 -0.352263,0.90776 -0.826462,1.66647 0.663879,3.86133 0.663879,5.6633 -0.0542,0.35224 -0.162582,1.19226 0.149035,1.36839 0.880654,0.5284 0.135486,0.85355 0.392906,1.61229 0.04064,0.13548 -0.447101,0.58258 -0.406456,0.89419 0.01355,0.13549 0.934851,0.0407 1.097432,0.0813 0,0.52839 -1.192271,-0.13548 -0.772265,0.81291 0.135484,0.31163 0.82646,0.98905 0.82646,1.20582 -1.558081,0.39291 0.39291,0.89421 0.39291,1.4497 0,1.07034 -1.260014,0.58258 -0.08129,1.23291 0.514845,0.28452 -1.463246,1.78842 -1.395502,2.34391 0.189681,1.62582 -1.680019,-1.8968 -2.07293,-0.28452 -0.73162,0 -1.476789,0.8671 -1.476789,-0.5013 -0.4742,0 -1.002595,0.54194 -1.31421,0.82646 -0.745172,0.66388 0.989044,0.70453 0.216775,1.49034 -0.243874,0.33872 -0.325165,1.04325 -0.758719,1.19227 -0.487748,0.16259 -0.474199,-0.66387 -0.772267,-0.66387 -0.01355,-0.0271 -0.758718,0.0136 -0.894204,-0.0136 -0.311617,-0.0677 -0.298068,-0.54195 -0.663879,-0.44711 0,0.37936 -0.447102,0.43356 -0.704524,0.59613 -0.541943,0.33872 -0.0542,1.15164 -1.192272,1.27357 l -4.620057,0.51485 c -1.761312,0.18968 -2.885841,-0.77227 -4.552313,-0.85356 -1.883249,-0.47421 -4.430376,-1.32776 -6.340721,-1.15163 -0.975496,0.0948 -1.720666,0.96194 -2.682613,1.15163 -1.490341,0.31162 -2.940036,-0.16258 -4.376183,0.0541 -0.718073,0.25742 -1.815505,-0.0541 -2.384544,0.40646 -0.447102,0.3658 -1.219369,1.02969 -1.571632,1.53098 -0.216777,0.31161 -0.135485,0.70453 -0.243874,1.04324 -0.311616,0.9484 -1.693568,2.22196 -2.357447,3.04842 -0.745171,0.94841 0.528393,1.35486 1.097432,1.93744 0.731622,0.73163 1.029689,-0.3929 1.77486,-0.3929 0.650331,0 0.433554,0.63678 0.84001,0.90775 0.311617,0.20323 1.707117,0.33872 2.032282,0.16259 0.758719,-0.40647 0.948399,0.70451 1.097433,1.3142 0.352262,0.63679 1.043238,0.25743 1.192272,0.66388 0.176131,0.5013 1.165175,1.61228 0.0542,1.35486 -0.55549,-0.13549 -0.663879,0.66388 -0.663879,1.05678 0,1.15163 -0.501296,2.14067 -0.663879,3.26521 -0.162582,1.21937 0.28452,2.14067 0.582587,3.29229 0.01355,0.40646 0.352263,0.69098 0.352263,1.11098 0,1.09743 -0.176132,2.20841 -0.08129,3.3194 l 0.203229,0.88066 v 0 c 0.487748,0.14902 0.989044,0.0813 1.449695,0.21677 0.0542,0.0136 -0.135486,1.43615 0.541941,1.34131 0.84001,-0.13549 0.867108,-0.27097 1.747764,-0.0948 0.447102,0.0813 0.745169,-0.12194 1.192272,-0.0948 0.623233,0.0271 1.097433,0.46065 1.815505,0.50129 0.555491,0.0271 -0.406456,-1.05678 -0.257422,-1.59873 0.02709,-0.0136 0.02709,0 0.02709,-0.0271 0.690976,0 2.127123,0.5013 2.601321,-0.35225 0.28452,-0.5284 -0.74517,-0.88067 -0.311617,-1.4497 0.216778,-0.28452 -0.09484,-1.02969 0.28452,-1.02969 0.02709,0 1.300661,0.63678 1.341306,0.78581 0.09484,0.43356 0.690977,1.08389 1.070336,1.27357 0,0.65033 -0.338713,0.9755 0.541942,0.9755 0.718074,0 1.950991,0.24386 2.587773,0.0677 0.37936,0.0813 0.785816,0.40646 1.12453,0.43356 0.636783,0.0407 0.745171,0.21677 0.758719,0.85355 l 0.0542,2.03229 c 0.01355,0.73162 -0.55549,1.20582 0.541942,1.20582 0.09484,0.40646 0.02709,0.93484 0.311617,1.26002 0.46065,0.50129 0.528393,1.02968 0.812913,1.65292 0.04064,0.17613 0.474199,0.67742 0.230325,0.81291 -0.528394,0.28452 -0.149034,0.75872 -0.474199,0.8942 -0.257423,0.1084 -0.758719,0.12195 -1.056787,0.16259 -0.108388,0.46065 -0.609685,1.07034 -0.09484,1.43615 0,0.58258 0.08129,1.04323 -0.176131,1.49034 -0.203229,0.3387 0.487748,0.96194 0.596136,1.40904 0.121937,0.48775 0.04064,1.02969 0.06775,1.53099 0.04065,0.74517 0.772268,0.84001 0.772268,1.74777 0,1.08387 0.108388,2.53357 -0.08129,3.56326 -0.162582,0.46065 -0.162582,1.53099 -0.162582,2.03228 0.352262,0.0948 0.894203,-0.0136 1.30066,-0.0136 0,1.31421 -0.989044,0.69097 -1.192272,0.9755 -0.176131,0.25742 0,0.36581 -0.365811,0.55549 -0.663879,0.35226 -0.487748,-0.21678 -0.894204,0.62323 -0.149034,0.31162 -0.514845,0.84001 -0.162583,1.11098 0.650331,0.5013 -0.09484,0.70453 0.93485,1.02969 0.718073,0.21678 1.558083,0.20323 2.276156,0.37937 0,0.0407 0,0.0541 0.01355,0.0813 l -0.09484,1.07034 c -0.02709,0.36581 1.720665,-0.10839 1.991637,0.43356 0.311616,0.62323 0.149034,0.42 0.149034,0.98903 0,0.17614 0.474199,0.74518 -0.0542,0.66389 -0.731621,-0.1084 -0.975496,0.31161 -0.433553,0.82646 0.27097,0.25742 0.04064,0.43355 -0.176131,0.59613 -0.433554,0.31162 -0.203229,0.63679 -0.325165,1.04324 -0.85356,1.3684 0.108388,0.79937 0.01355,1.86971 -0.01355,0.18968 -0.880656,-0.0407 -1.21937,0.43354 -1.151628,1.55809 -2.62842,2.22196 -3.400686,3.60392 -0.365812,0.67743 0.663879,-0.0542 0.09484,0.55549 -0.311617,0.33871 0.18968,1.27356 0.311617,1.72067 0.243873,0.85355 1.246467,-1.20582 1.652923,-1.30066 0.325165,1.28711 1.422599,-0.74517 1.910347,-1.0568 0.149034,-0.0948 1.856151,0.63679 2.262607,0.67744 1.314209,0.12193 1.896797,1.42259 2.235511,2.49293 0.487748,1.47679 1.801957,1.13808 1.503889,-0.0677 h -1.205821 c 0,-0.0813 0.474199,-0.62324 0.55549,-0.81292 0.135486,-0.29806 0.08129,-1.26001 0.447103,-0.88065 0.270971,0.28452 0.447102,0.50129 0.867107,0.50129 0,-1.24646 -0.704525,-0.82646 0.63678,-1.58517 l 2.208418,-1.23292 c -0.541946,-0.13549 -0.162586,-1.39551 0.0542,-1.65292 0.325164,-0.40647 2.560674,-0.55549 3.102619,-0.55549 0.867105,0.0407 1.138077,-0.60969 1.8426,-0.90776 0.325167,-0.13549 1.232919,-0.73162 1.51744,-0.73162 0,0.65033 0.514846,1.01614 0.840007,1.4497 0.56904,0.75871 1.436148,-0.59614 1.815507,-0.59614 0.108389,0.42001 1.422597,0.59614 1.747764,0.67743 0,0.51484 -0.880655,3.03487 0.06775,3.03487 0.325163,0 0.514845,0.21678 0.812909,0.21678 0.176134,0 1.26002,-0.21678 1.287118,0.13548 0.0542,0.63678 -0.677431,0.63678 0.298064,1.07034 0.853558,0.56904 -0.501295,1.8155 -0.82646,2.791 -0.66388,2.01873 -0.894205,4.20004 -0.894205,6.34072 0,2.16777 1.476793,1.38196 2.68261,1.82905 0.149038,0.0541 2.072934,-0.21677 2.750358,-0.0948 0.853556,0.14904 0.948406,0.85357 1.53099,0.65033 1.693565,-0.62322 1.083887,0.69098 2.492933,0.39292 0.704518,-0.14904 2.005189,-1.59874 2.506481,-1.46325 0.23032,0.90776 0.758716,1.19228 1.612272,1.19228 1.029699,0 -1.002583,-2.3981 1.449698,-2.3981 0.352264,0 1.978084,-0.0541 2.140669,0.21678 0.176132,0.28451 0.352264,1.72067 0.812915,1.72067 0.311613,0.23032 0.487745,0.0813 0.78581,0.14902 0,0.62324 -0.121933,1.08389 0.06773,1.74777 0.203226,0.73162 0.569038,2.27616 1.097434,2.64197 1.707123,1.17872 3.57682,1.66647 4.90457,3.34649 0.28452,0.35226 0.4471,0.70453 0.81292,0.96195 0.42001,0.28452 1.04323,-0.0136 1.04323,0.60968 0,0.66388 0.13549,1.32776 0.13549,1.99164 -0.13549,0.32516 -0.27097,0.56904 -0.43355,0.88065 -0.0948,0.18968 0,0.27097 0,0.43356 0,0.43355 -0.70453,0.13548 -0.17614,0.78582 0.14904,0.17612 -0.12193,0.44709 -0.12193,0.67742 0,1.09744 0.9213,2.28971 0.9213,3.44133 v 0 z M 100.24462,49.255761 c -0.51484,0.230325 -1.598726,-1.598728 -1.774859,-1.991635 -0.433546,-0.961947 0.42001,-1.761312 1.449698,-1.436147 1.110981,0.338714 1.422591,0.420006 2.357441,1.21937 0.9755,0.853559 1.85616,1.910346 2.91294,2.69616 0.29807,0.230325 0.9755,0.704527 1.07034,1.056791 0.0813,0.257422 -0.29807,0.09484 -0.4471,0 -0.13549,-0.09484 -0.51485,-0.555492 -0.59614,-0.582589 0,0.325166 0.24387,0.745171 -0.16258,0.934849 -0.90775,0.420006 -3.49552,-1.829054 -4.7149,-1.950991 z m 63.51561,52.202559 c -0.70452,-0.0542 -1.12453,-0.81291 -1.59873,-1.19227 -1.04323,-0.826462 -2.43873,-1.680018 -3.15681,-2.858745 -0.9755,-1.585168 2.69616,-0.162574 3.10263,-0.02707 2.64196,0.812904 4.82328,2.425187 6.38137,4.674245 0.90774,1.3142 0.47419,1.12452 -0.82647,0.88066 -1.30065,-0.24388 -2.35745,-0.71808 -3.57682,-1.23293 l -0.31161,-0.23032 z m 32.04234,18.06022 c -0.24388,-3.87489 -4.33554,-4.47102 -6.73363,-6.36782 -1.02971,-0.81291 -1.8426,-0.50129 -2.91294,-0.90776 -1.35486,-0.51483 -2.49293,-1.7342 -3.56326,-2.66905 -1.49035,-1.32777 -2.4523,-1.11098 -4.41685,-1.28711 -2.7639,-0.5284 -5.94781,-1.65293 -8.54913,-2.72327 l -6.85557,-2.8452 c -1.30066,-1.04323 -3.00778,-0.82646 -4.47102,-1.20582 -0.82647,-0.21677 -2.03229,-1.829055 -2.7368,-2.41164 -0.1084,-0.08132 -0.71808,-0.55549 -0.66389,-0.609678 0.0948,-0.09481 1.61228,0.88065 1.82905,1.124528 0.70453,0.75872 1.24648,1.35485 2.31681,1.35485 -0.66388,-2.00518 -4.55231,-2.858747 -4.17296,-5.44652 0.0813,-0.582573 -1.3142,-0.569026 -1.8426,-0.731611 l -4.14586,-1.287113 c -1.65292,-0.514839 -2.87229,1.368405 -1.3955,2.479375 1.4497,1.097455 3.14327,1.788415 4.63361,2.92649 0.31162,0.379358 0.84001,0.731623 1.23292,1.029688 0.75872,0.541941 1.21937,1.381951 1.89679,2.018731 0.66388,0.62324 1.24647,1.40905 1.93745,1.9781 0.96195,1.12453 1.4226,1.8155 2.91294,2.08647 0.94839,0.16259 1.73422,1.09744 2.7368,1.42261 1.96455,0.62322 3.07553,1.15162 4.70137,2.46583 0.66386,0.54194 1.17871,1.3142 1.91033,1.80196 l 2.60131,1.73422 c 0.69099,0.8671 2.4523,1.30065 3.37361,1.96453 l 4.74199,3.38713 c 1.4226,1.01614 3.50906,2.54713 5.09425,3.19746 1.01614,0.84001 2.27616,1.26002 3.15682,2.3168 l 4.43038,5.25684 c 2.42518,2.88586 4.67423,1.50389 5.02649,-1.78839 0.23032,-2.12712 -0.27097,-6.47622 -1.8426,-8.06141 l -0.24387,-0.16257 z m 18.24988,11.16401 c 0.58258,-1.38195 1.16518,-3.49553 1.07034,-4.99942 -0.0813,-1.23291 -1.15163,-2.91294 -1.59874,-4.09166 -0.27097,-0.74517 -2.64196,-0.56904 -3.36003,-1.04324 -2.01874,-1.34131 -2.60132,-1.55808 -5.04007,-2.04583 -0.89419,-0.17614 -6.67943,-1.55809 -7.18072,-1.17873 0,1.9239 2.14067,4.11877 2.2084,6.40847 0.0677,2.28971 -0.65033,4.43038 0.85357,6.28654 0.25741,0.59612 2.41164,3.10262 3.02132,3.22454 1.0297,0.20323 1.66647,1.01615 2.54713,1.58518 0.48775,0.31161 1.62583,1.34131 2.23551,1.00259 0.70453,-0.37935 0.84001,-0.7045 1.70712,-0.67741 2.38454,0.0813 2.791,-1.99165 3.27874,-3.92908 l 0.24388,-0.54195 z m 3.33294,23.70997 c -0.4471,-0.23032 -1.3142,-1.54454 -1.70711,-1.97809 -1.08389,-1.15163 -1.81551,-3.07552 -1.59874,-4.6607 0.35227,-2.50648 3.17037,-0.23032 4.33554,0.0677 1.24647,0.32516 2.87229,0.0271 3.22456,1.4497 0.51485,2.01874 0.31161,3.67165 -0.32516,5.6362 -0.23033,0.70451 -0.33872,1.8155 -1.31422,1.68001 -1.05678,-0.13549 -1.62582,-1.11098 -2.3439,-1.76131 l -0.25742,-0.43355 z m 14.57824,7.42461 c 0.88065,-1.27357 1.13808,-3.08908 1.95099,-4.43038 0.55549,-0.9213 0.96194,-2.92649 0.86711,-3.99683 -0.32516,-3.87488 -3.06198,-3.29229 -6.01556,-3.60391 -2.3168,-0.23032 -2.62841,-0.0677 -3.29229,2.26261 -0.47421,1.69357 -0.0677,3.40069 -0.0677,5.1349 0.40645,2.3168 1.17872,4.18651 2.58777,6.09684 1.40904,1.89681 3.30585,0.62324 3.98327,-1.13807 z M 131.4063,263.13319 c -0.27097,-0.0677 -0.48775,-0.29806 -0.74517,-0.40646 -0.20323,-0.0948 -0.42001,-0.0271 -0.51485,0.17613 -0.0677,0.13549 0,0.28452 0.13549,0.35226 0.12193,0.0543 0.25743,0.0677 0.36581,0.14904 0.10839,0.0813 0.16259,0.18968 0.25743,0.28452 0.14902,0.13548 0.40645,0.0136 0.52838,-0.0948 l -0.0271,-0.4471 z m -5.93426,-240.12097 0.29806,0.596136 c 0.39291,1.016143 1.58518,2.05938 2.45229,2.655516 0.58259,0.406457 1.8968,1.883248 1.8968,2.641969 -0.29807,0.149033 -0.60968,0.216776 -0.93485,0.36581 -0.25743,0.108388 0.46065,1.12453 0.62323,1.422597 0.42,0.731623 0.82646,1.558084 1.38196,2.181318 0.85355,2.208413 5.5278,4.240695 7.79041,4.525215 l 5.12135,0.623233 c 1.91034,0.230325 1.95099,1.801958 3.42779,2.289706 0.69097,0.650331 1.53098,0.582587 2.37099,0.853557 1.40905,0.447104 2.42519,0.785818 3.50907,1.815507 1.01614,0.961947 2.27616,1.612278 3.30585,2.547128 0.90775,0.704524 1.77486,1.097432 2.88584,1.409049 0.74517,0.203228 1.69357,0.636782 2.26261,1.151626 0.23032,0.203228 1.23291,1.016143 1.54455,0.853559 0.33869,-0.162583 0.21676,-0.55549 0.77225,-0.582587 0.63678,-0.02709 1.20583,0.149034 1.81551,0.36581 0.67742,0.230326 1.96454,0.867108 2.56067,1.029691 v 0 c 0.12194,0.06775 0.23033,0.135486 0.35226,0.203228 1.15163,0.650329 4.45749,2.872293 4.97233,4.132308 -0.75873,1.85615 -3.3736,1.04324 -4.55232,0.06775 L 167.55382,52.67 c -0.79935,-0.677426 -0.0813,-0.582584 0.12195,-1.381947 -0.29807,-0.08129 -0.65032,0.758715 -1.19228,0.54194 -0.89419,-0.365813 -1.80196,-1.395501 -2.69616,-1.896796 l -5.16199,-2.872295 c -2.03229,-0.176131 -3.86134,-2.262608 -5.78524,-2.736806 0.37936,1.49034 4.89103,3.441331 6.1104,4.254244 1.15163,0.772267 2.46584,1.273565 3.56327,2.181318 l 3.64455,3.007777 c 1.51745,1.652925 3.69876,3.021327 5.6633,4.091664 2.49295,1.354852 5.52782,3.251649 8.29173,3.942627 2.76388,1.598731 6.27298,2.777455 9.37559,3.495528 l 6.12395,1.422596 c 1.86969,0.433553 3.37357,1.124529 5.32456,1.124529 1.61228,-0.135487 3.02133,0.514846 4.63361,0.731621 0.69098,0.09484 1.04323,0.162585 1.59872,0.582589 0.21679,0.162581 1.96455,0.162581 2.52004,0.311616 1.96454,0.541941 4.36263,0.961949 6.0833,2.167769 1.8697,1.314211 3.1839,2.858743 5.33812,3.793591 0.54194,1.043241 2.38455,1.896799 3.25166,2.791003 2.98068,3.075517 7.30267,5.026506 7.04524,9.903986 -0.12193,1.517444 -0.20322,4.931679 -1.01614,6.164593 -1.3684,2.04584 -4.2136,4.538752 -6.27298,5.880073 -0.55549,0.3116 -0.90775,0.84 -1.3684,1.27356 -1.74777,1.65293 -4.86394,1.61227 -6.80138,2.72325 -2.62841,1.50388 -6.80136,1.12453 -9.71431,1.12453 -1.58518,0.29808 -2.04583,-0.8942 -3.42778,-1.3413 -2.20841,-0.71808 -4.87748,-2.92649 -6.80136,-4.281352 -2.70971,-1.910328 -6.002,-2.398073 -8.8201,-4.538752 -1.13808,-0.623225 -2.15422,-1.612273 -3.22456,-2.330348 -1.89679,-1.260019 -4.32198,-1.747764 -6.42202,-2.560679 -0.9213,-0.162585 -1.8697,-0.677424 -2.7368,-1.029688 -1.63937,-0.663877 -3.60392,-0.338717 -5.32459,-0.745169 -1.9239,-0.460651 -4.1865,-0.501292 -5.89362,-1.612273 -2.37099,-0.379369 -4.6607,-2.547132 -7.0317,-3.373594 -1.42259,-0.501291 -2.98068,-1.720669 -4.34908,-2.438737 -1.42259,-0.74517 -3.82069,-2.140669 -4.74199,-3.414234 l -5.62265,-3.034876 c -2.33035,-1.260014 -5.31102,-1.612277 -7.24847,-3.549722 -1.4497,0.270972 -2.49293,-1.016138 -3.57682,-1.680018 -1.02969,-0.636782 -2.18132,-1.544534 -3.33294,-1.910348 -1.53099,-0.501295 -4.20007,-0.284519 -4.64717,-1.883246 -0.51484,-1.815508 -3.41423,-2.709713 -4.72844,-3.874887 -1.26002,0 -1.4497,-0.731619 -2.28971,-1.40905 -1.51743,-1.219367 -3.07552,-2.018734 -4.25424,-3.631008 -1.23292,-1.69357 -2.54712,-3.820693 -4.2136,-5.067161 -0.25742,-0.406457 -0.12194,-0.840012 -0.12194,-1.287112 -2.16776,0 -4.03747,-4.159404 -6.25943,-4.904575 -1.66647,-0.55549 -1.978083,-0.18968 -3.509074,0.149034 -0.677424,0.149034 -0.55549,-0.203228 -1.002583,-0.623233 -0.65033,-0.623234 -1.666471,-0.677428 -2.343906,-1.219369 C 94.120678,43.592474 93.8768,43.44344 93.687121,43.3486 c -0.257414,-0.528394 -0.812904,-1.043239 -1.124527,-1.58518 -0.623226,-1.110981 -1.490339,-1.910347 -2.140669,-2.953585 -0.826462,-1.31421 -1.62582,-2.167768 -2.641961,-3.346492 l -0.365811,-0.528394 c -0.731623,-0.609684 -3.305848,-3.861336 -2.994236,-4.701346 0.555491,-1.50389 2.398094,-3.061974 3.685207,-3.942628 1.923896,-1.314209 3.48198,-3.319395 5.311026,-4.809736 6.0833,-2.669064 12.09885,-12.2749866 19.21185,-5.961361 2.15422,1.530986 4.79618,3.305846 7.22138,4.376181 1.16517,0.514844 2.03228,1.666471 3.26519,2.235511 0.77227,0.352262 1.57165,0.609684 2.37101,0.894203 v 0 z"
       id="path842"
       style="clip-rule:evenodd;fill:#d5e3ff;fill-opacity:1;fill-rule:evenodd;stroke:#000000;stroke-width:1.79236;stroke-miterlimit:4;stroke-dasharray:none;image-rendering:optimizeQuality;shape-rendering:geometricPrecision;text-rendering:geometricPrecision" />
  </g>
</svg>
